<?xml version="1.0" encoding="utf-8"?>
<!-- Generator: Adobe Illustrator 17.1.0, SVG Export Plug-In . SVG Version: 6.00 Build 0)  -->
<!DOCTYPE svg PUBLIC "-//W3C//DTD SVG 1.1//EN" "http://www.w3.org/Graphics/SVG/1.1/DTD/svg11.dtd">
<svg version="1.1" id="Layer_1" xmlns="http://www.w3.org/2000/svg" xmlns:xlink="http://www.w3.org/1999/xlink" x="0px" y="0px"
	 viewBox="0 0 405.7 405.7" style="enable-background:new 0 0 405.7 405.7;" xml:space="preserve">
<path d="M202.9,0C90.8,0,0,90.8,0,202.9c0,112,90.8,202.9,202.9,202.9c112,0,202.9-90.8,202.9-202.9C405.7,90.8,314.9,0,202.9,0z
	 M202.9,381.8c-98.7,0-179-80.3-179-178.9c0-98.7,80.3-179,179-179v10.4c-92.9,0-168.5,75.6-168.5,168.5
	c0,92.9,75.6,168.5,168.5,168.5c16.1,0,32-2.3,47.3-6.7l2.9,10C236.8,379.4,219.9,381.8,202.9,381.8z M282.8,287.5v11.1H147.3
	l125.5-191.7h14l-119,180.6H282.8z M132.3,298.9h-13.4L238,117.9H123v-11.1h135.5L132.3,298.9z M202.9,361v-10.4
	c81.5,0,147.7-66.3,147.7-147.7c0-81.5-66.3-147.7-147.7-147.7c-19.9,0-39.3,3.9-57.5,11.6l-4.1-9.6c19.5-8.2,40.2-12.4,61.6-12.4
	c87.2,0,158.1,70.9,158.1,158.1C361,290.1,290.1,361,202.9,361z"/>
</svg>
